<svg width="116" height="77" viewBox="0 0 116 77" fill="none" xmlns="http://www.w3.org/2000/svg">
    <path d="M16.997 36.122c1.494 0 2.738.776 3.318 1.614v-1.405h2.281v10.484h-1.549a.736.736 0 0 1-.732-.74v-.664c-.58.838-1.824 1.613-3.318 1.613-2.84 0-4.997-2.452-4.997-5.45 0-3 2.157-5.452 4.997-5.452zm.415 2.097c-1.846 0-3.09 1.467-3.09 3.354s1.244 3.355 3.09 3.355c1.846 0 3.09-1.468 3.09-3.355s-1.244-3.354-3.09-3.354zM25.186 36.332h2.282v1.425c.622-1.048 1.804-1.635 3.152-1.635 2.405 0 3.96 1.72 3.96 4.382v6.31h-1.549a.736.736 0 0 1-.732-.74v-5.192c0-1.656-.83-2.663-2.156-2.663-1.514 0-2.675 1.195-2.675 3.438v5.158h-1.55a.736.736 0 0 1-.732-.74v-9.743zM41.383 36.122c1.492 0 2.737.776 3.317 1.615V31.09h2.28v15.725h-1.548a.735.735 0 0 1-.732-.74v-.664c-.58.838-1.825 1.614-3.318 1.614-2.84 0-4.997-2.453-4.997-5.451 0-2.999 2.156-5.452 4.998-5.452zm.415 2.097c-1.846 0-3.09 1.467-3.09 3.355 0 1.886 1.244 3.355 3.09 3.355 1.844 0 3.088-1.469 3.088-3.355 0-1.888-1.244-3.355-3.088-3.355zM49.571 36.332h2.281v1.866c.394-1.195 1.555-1.97 2.738-1.97.29 0 .58.02.891.083v2.369a3.518 3.518 0 0 0-1.14-.189c-1.306 0-2.489 1.112-2.489 3.209v5.115h-1.55a.736.736 0 0 1-.73-.74v-9.743zM61.631 47.024c-3.068 0-5.433-2.412-5.433-5.45 0-3.04 2.365-5.452 5.433-5.452 3.07 0 5.433 2.41 5.433 5.452 0 3.038-2.363 5.45-5.433 5.45zm0-2.138c1.825 0 3.11-1.447 3.11-3.312 0-1.866-1.285-3.313-3.11-3.313-1.845 0-3.13 1.447-3.13 3.313 0 1.865 1.285 3.312 3.13 3.312zM70.053 34.047c-.83 0-1.534-.692-1.534-1.552 0-.839.705-1.53 1.534-1.53.85 0 1.514.691 1.514 1.53 0 .86-.664 1.552-1.514 1.552zm-1.14 2.284h2.28v10.484h-1.548a.736.736 0 0 1-.731-.74v-9.744zM78.066 36.122c1.493 0 2.738.776 3.319 1.615V31.09h2.28v15.725h-1.549a.735.735 0 0 1-.731-.74v-.664c-.581.838-1.826 1.614-3.32 1.614-2.839 0-4.996-2.453-4.996-5.451 0-2.999 2.157-5.452 4.997-5.452zm.415 2.097c-1.845 0-3.089 1.467-3.089 3.355 0 1.886 1.244 3.355 3.089 3.355 1.846 0 3.09-1.469 3.09-3.355 0-1.888-1.244-3.355-3.09-3.355z" fill="#666"/>
    <path d="M87.631 37.665H85.4v-1.391h2.232v-2.931h1.46v2.931h3.044v1.391h-3.044v6.094c0 1.286.563 1.792 1.73 1.792.417 0 .98-.085 1.314-.232v1.328c-.48.19-.98.274-1.543.274-1.772 0-2.96-1.033-2.96-3.036v-6.22zM104 36.274l-4.879 10.542h-1.146l-4.88-10.542h1.626l3.816 8.37 3.816-8.37H104z" fill="#BBB"/>
</svg>
