<svg width="116" height="77" viewBox="0 0 116 77" fill="none" xmlns="http://www.w3.org/2000/svg">
    <path fill-rule="evenodd" clip-rule="evenodd" d="M47.299 24.995a6.297 6.297 0 0 1-1.45 4.492 5.164 5.164 0 0 1-1.85 1.47 5.194 5.194 0 0 1-2.317.496 5.904 5.904 0 0 1 1.482-4.31 6.219 6.219 0 0 1 4.135-2.148zm-3.793 7.58c1.026-.405 2.293-.906 3.694-.826v-.003a6.603 6.603 0 0 1 2.88.8 6.562 6.562 0 0 1 2.226 1.985 6.403 6.403 0 0 0-2.19 2.285 6.361 6.361 0 0 0-.824 3.05 6.224 6.224 0 0 0 1.026 3.39 6.274 6.274 0 0 0 2.713 2.291 15.227 15.227 0 0 1-1.927 3.965c-1.153 1.789-2.438 3.4-4.283 3.44-.901.02-1.512-.243-2.148-.518-.666-.288-1.36-.588-2.448-.588-1.119 0-1.809.3-2.483.595-.605.263-1.198.522-2.08.552-1.86.064-3.26-1.9-4.43-3.548-2.405-3.469-4.217-9.814-1.746-14.073a6.761 6.761 0 0 1 2.41-2.525 6.808 6.808 0 0 1 3.355-.993c1.028-.018 2.013.372 2.875.713.657.26 1.243.493 1.72.493.434 0 .997-.223 1.66-.485zm18.403.546v-4.678l-3.953.003v4.74H55.09v3.096h2.948V47.68c0 3.766 1.5 5.268 5.387 5.268.744.01 1.488-.045 2.224-.164v-3.112c-.449.057-.9.09-1.351.098-1.647 0-2.389-.842-2.389-2.493V36.209h3.756V33.12h-3.756zm12.766 19.656h4.118l6.902-19.59h-4.02l-4.859 15.74h-.098l-4.86-15.74h-4.101l6.918 19.59z" fill="#666"/>
</svg>
