<svg width="33" height="33" viewBox="0 0 33 33" fill="none" xmlns="http://www.w3.org/2000/svg">
    <g clip-path="url(#wubf6c0gha)">
        <path d="M16.5 3.661c-7.364 0-13.333 5.97-13.333 13.333 0 6.655 4.876 12.171 11.25 13.172v-9.318h-3.386v-3.854h3.387v-2.937c0-3.341 1.989-5.187 5.036-5.187 1.458 0 2.984.26 2.984.26v3.28h-1.68c-1.658 0-2.174 1.028-2.174 2.083v2.501h3.698l-.591 3.854h-3.107v9.319c6.374-1 11.25-6.52 11.25-13.173 0-7.364-5.97-13.333-13.334-13.333z" fill="#fff"/>
    </g>
    <defs>
        <clipPath id="wubf6c0gha">
            <path fill="#fff" transform="translate(.5 .995)" d="M0 0h32v32H0z"/>
        </clipPath>
    </defs>
</svg>
