<svg width="116" height="77" viewBox="0 0 116 77" fill="none" xmlns="http://www.w3.org/2000/svg">
    <g clip-path="url(#hn8ktf02ga)" fill="#666">
        <path d="M37.054 24.995h.593c.463.028.923.1 1.373.214a.598.598 0 0 1 .444.283c.051.177.072.361.06.545a2.7 2.7 0 0 1-.034.616.265.265 0 0 1-.264.198 8.256 8.256 0 0 1-.902-.105 4.483 4.483 0 0 0-1.169.034c-.306.042-.587.19-.794.42-.201.293-.307.64-.301.995v2.116h2.91a.41.41 0 0 1 .396.198c.053.211.07.43.05.646.018.216.003.434-.044.645a.404.404 0 0 1-.403.207h-2.922v8.791a.507.507 0 0 1-.103.342.41.41 0 0 1-.305.11h-1.322a.411.411 0 0 1-.325-.126.577.577 0 0 1-.09-.363v-8.75h-1.535a.556.556 0 0 1-.372-.1.402.402 0 0 1-.114-.243v-.746a.372.372 0 0 1 .156-.264c.124-.063.258-.1.397-.111l1.468-.183v-1.603a5.665 5.665 0 0 1 .22-1.738 2.719 2.719 0 0 1 1.02-1.45 3.659 3.659 0 0 1 1.912-.578zM41.93 25.823c.363-.08.744-.038 1.081.121a1.159 1.159 0 0 1 .592.794 1.55 1.55 0 0 1-.116 1.024 1.18 1.18 0 0 1-.846.597 1.83 1.83 0 0 1-.947-.074 1.164 1.164 0 0 1-.704-.852 1.536 1.536 0 0 1 .13-1.031 1.174 1.174 0 0 1 .81-.58zM67.47 27.642a.405.405 0 0 1 .343-.378h1.019a.422.422 0 0 1 .333.119.505.505 0 0 1 .1.333v2.605h2.804a.38.38 0 0 1 .42.32c.017.265 0 .53 0 .794a.7.7 0 0 1-.073.423.455.455 0 0 1-.392.151h-2.758v6.181c-.03.36.051.72.235 1.03.186.226.452.372.743.407a4.995 4.995 0 0 0 1.82-.1c.153-.022.368-.07.465.086.058.193.077.395.056.596.032.249-.001.502-.098.735a1.153 1.153 0 0 1-.64.29c-.544.121-1.1.18-1.658.178a4.195 4.195 0 0 1-1.482-.243 2.264 2.264 0 0 1-1.092-.855 3.248 3.248 0 0 1-.487-1.634c-.023-.476 0-.953 0-1.429V32.01h-1.536a.468.468 0 0 1-.37-.135.695.695 0 0 1-.09-.439 4.763 4.763 0 0 1 0-.529.338.338 0 0 1 .174-.264c.154-.064.318-.1.484-.109l1.38-.17c.11-.91.202-1.816.3-2.72zM55.59 30.446a5.817 5.817 0 0 1 2.444-.455 5.111 5.111 0 0 1 1.868.35c.62.247 1.155.672 1.536 1.221a4.3 4.3 0 0 1 .69 1.852c.104.79.093 1.592-.031 2.38a.752.752 0 0 1-.132.373.529.529 0 0 1-.365.1h-6.745a4.436 4.436 0 0 0 .622 2.381c.327.476.804.828 1.354 1.003.82.24 1.68.306 2.526.195a9.85 9.85 0 0 0 1.968-.444.72.72 0 0 1 .476-.048.382.382 0 0 1 .153.352v.725a.483.483 0 0 1-.264.447c-.44.22-.907.38-1.389.479a9.577 9.577 0 0 1-2.05.243 7.406 7.406 0 0 1-1.981-.225 4.557 4.557 0 0 1-1.682-.828 4.157 4.157 0 0 1-1.01-1.18 6.043 6.043 0 0 1-.71-2.208 10.514 10.514 0 0 1-.066-2.018 6.876 6.876 0 0 1 .53-2.362 4.496 4.496 0 0 1 2.258-2.333zm1.352 1.275a2.438 2.438 0 0 0-1.468 1 4.244 4.244 0 0 0-.63 2.116h5.364c.05-.714.035-1.476-.306-2.116a1.935 1.935 0 0 0-1.217-.968 3.586 3.586 0 0 0-1.743-.032zM49.938 30.552a3.77 3.77 0 0 1 1.69-.318 2.15 2.15 0 0 1 .53.045.328.328 0 0 1 .235.318v1.222a.384.384 0 0 1-.08.264.394.394 0 0 1-.298.114c-.178 0-.352-.021-.53-.035a4.515 4.515 0 0 0-3.08.92c-.046.048-.14.078-.133.157v7.596a.408.408 0 0 1-.119.323.441.441 0 0 1-.325.095h-1.363a.365.365 0 0 1-.333-.38V30.805a.48.48 0 0 1 .12-.395.53.53 0 0 1 .359-.1h.868a.587.587 0 0 1 .41.119c.079.097.126.216.134.341l.143 1.148a5.843 5.843 0 0 1 1.772-1.367zM41.469 30.34c.087-.02.175-.03.264-.026h1.148a.529.529 0 0 1 .357.103.407.407 0 0 1 .111.288v10.17a.36.36 0 0 1-.327.378h-1.394a.386.386 0 0 1-.358-.166.847.847 0 0 1-.06-.426v-9.715a1.017 1.017 0 0 1 .05-.437.323.323 0 0 1 .209-.169zM73.646 30.499a.288.288 0 0 1 .304-.183h.973c.23-.015.462.002.688.05.135.04.2.178.264.294.122.265.204.55.305.823l2.745 7.813c.99-2.809 1.977-5.619 2.963-8.43.087-.206.169-.492.43-.529.448-.058.903-.015 1.352-.029.167 0 .394 0 .453.193v.175c-.14.442-.331.868-.495 1.299l-3.41 8.585c-.062.21-.162.407-.293.582a.793.793 0 0 1-.513.117h-1.185a.505.505 0 0 1-.453-.204 6.987 6.987 0 0 1-.36-.833l-3.628-9.104a1.21 1.21 0 0 1-.14-.62zM74.44 43.806a8.754 8.754 0 0 1 2.605.214c.26.052.505.165.714.33.125.23.183.489.166.75a8.484 8.484 0 0 1-.473 2.597 8.062 8.062 0 0 1-1.941 3.25 2.802 2.802 0 0 1-.397.334.395.395 0 0 1-.389.034.307.307 0 0 1-.06-.365 34.9 34.9 0 0 0 .74-1.957 11.75 11.75 0 0 0 .566-2.146c.058-.3.04-.612-.056-.904a.736.736 0 0 0-.468-.368 4.76 4.76 0 0 0-1.322-.177 25.87 25.87 0 0 0-3.312.235.712.712 0 0 1-.466-.026.25.25 0 0 1-.05-.328c.12-.17.281-.31.469-.402a7.934 7.934 0 0 1 3.673-1.071z"/>
        <path d="M37.258 44.618a.53.53 0 0 1 .458.069 38 38 0 0 0 4.15 2.081 41.089 41.089 0 0 0 16.965 3.264 39.702 39.702 0 0 0 6.062-.634 40.204 40.204 0 0 0 8.464-2.521.77.77 0 0 1 .68.031.548.548 0 0 1 .28.553.794.794 0 0 1-.354.503 24.435 24.435 0 0 1-6.163 3.198 31.568 31.568 0 0 1-9.683 1.827H56.73a32.162 32.162 0 0 1-3.936-.343 29.809 29.809 0 0 1-15.479-7.288.664.664 0 0 1-.264-.346.336.336 0 0 1 .206-.394z"/>
    </g>
    <defs>
        <clipPath id="hn8ktf02ga">
            <path fill="#fff" transform="translate(31.88 24.995)" d="M0 0h52.239v28H0z"/>
        </clipPath>
    </defs>
</svg>
