<svg width="33" height="33" viewBox="0 0 33 33" fill="none" xmlns="http://www.w3.org/2000/svg">
    <g clip-path="url(#i3yr2ubzda)">
        <path d="M16.5 3.661c3.623 0 4.075.013 5.496.08 1.42.067 2.387.29 3.238.62a6.5 6.5 0 0 1 2.362 1.537 6.545 6.545 0 0 1 1.538 2.363c.329.85.553 1.818.62 3.238.062 1.42.08 1.873.08 5.495 0 3.623-.014 4.075-.08 5.497-.067 1.42-.291 2.386-.62 3.237a6.51 6.51 0 0 1-1.538 2.362 6.554 6.554 0 0 1-2.362 1.538c-.85.33-1.818.553-3.238.62-1.421.063-1.873.08-5.496.08-3.622 0-4.074-.014-5.496-.08-1.42-.067-2.386-.29-3.237-.62a6.52 6.52 0 0 1-2.363-1.538 6.54 6.54 0 0 1-1.537-2.362c-.33-.85-.553-1.818-.62-3.238-.063-1.42-.08-1.873-.08-5.495 0-3.623.013-4.075.08-5.497.067-1.42.29-2.386.62-3.237a6.507 6.507 0 0 1 1.537-2.363 6.53 6.53 0 0 1 2.363-1.537c.85-.33 1.816-.553 3.237-.62 1.422-.063 1.874-.08 5.496-.08zm0 6.667a6.667 6.667 0 1 0 0 13.333 6.667 6.667 0 0 0 0-13.333zm8.667-.334a1.667 1.667 0 1 0-3.333 0 1.667 1.667 0 0 0 3.333 0zm-8.667 3a4 4 0 1 1 0 8 4 4 0 0 1 0-8z" fill="#fff"/>
    </g>
    <defs>
        <clipPath id="i3yr2ubzda">
            <path fill="#fff" transform="translate(.5 .995)" d="M0 0h32v32H0z"/>
        </clipPath>
    </defs>
</svg>
