<svg width="116" height="77" viewBox="0 0 116 77" fill="none" xmlns="http://www.w3.org/2000/svg">
    <path d="M68.67 34.54c-.162.127-3.03 1.743-3.03 5.335 0 4.156 3.65 5.626 3.759 5.663-.017.09-.58 2.013-1.924 3.973-1.199 1.725-2.45 3.447-4.355 3.447-1.904 0-2.394-1.106-4.592-1.106-2.142 0-2.904 1.143-4.646 1.143-1.741 0-2.957-1.596-4.354-3.557-1.619-2.302-2.926-5.878-2.926-9.272 0-5.443 3.54-8.33 7.023-8.33 1.85 0 3.394 1.215 4.556 1.215 1.106 0 2.83-1.288 4.937-1.288.798 0 3.665.073 5.553 2.778zm-6.552-5.082c.87-1.033 1.487-2.467 1.487-3.9 0-.2-.017-.401-.053-.563-1.417.053-3.103.943-4.12 2.122-.798.907-1.543 2.341-1.543 3.795 0 .218.037.437.054.507.09.016.235.036.38.036 1.272 0 2.87-.851 3.795-1.997z" fill="#666"/>
</svg>
