<svg width="116" height="77" viewBox="0 0 116 77" fill="none" xmlns="http://www.w3.org/2000/svg">
    <path d="M42.01 51.49c6.901 0 12.506-5.588 12.506-12.493S48.911 26.5 42.01 26.5c-6.912 0-12.506 5.593-12.506 12.498 0 6.905 5.594 12.494 12.506 12.494z" fill="#666"/>
    <path d="M41.507 33.512v10.965h3.486v-.986H42.51v-9.98h-1.004zM38.016 36.504a1.499 1.499 0 1 0-.002-2.998 1.499 1.499 0 0 0 .002 2.998z" fill="#BBB"/>
    <path d="M42.511 28.538c-.13-.006-.379-.015-.498-.015-5.772 0-10.47 4.7-10.47 10.469 0 2.802 1.089 5.428 3.061 7.404a10.434 10.434 0 0 0 7.41 3.059c2.79 0 5.417-1.089 7.394-3.06a10.395 10.395 0 0 0 3.071-7.403v-.466h-7.476v.964h6.479c0 .02 0 .123-.005.15-.33 4.932-4.448 8.838-9.464 8.838a9.42 9.42 0 0 1-6.71-2.78 9.38 9.38 0 0 1-2.788-6.706c0-2.528.99-4.919 2.788-6.71a9.43 9.43 0 0 1 6.71-2.776c.11 0 .376 0 .498.006v-.974z" fill="#BBB"/>
    <path d="M63.921 30.705h-3.758v16.269h11.543v-3.167H63.92V30.705zm16.051 10.07h3.061v2.844c-.564.215-1.665.429-2.712.429-3.382 0-4.509-1.718-4.509-5.207 0-3.327 1.073-5.29 4.456-5.29 1.88 0 2.953.592 3.837 1.72l2.337-2.149c-1.423-2.038-3.92-2.656-6.255-2.656-5.262 0-8.026 2.872-8.026 8.348 0 5.449 2.496 8.401 8 8.401 2.523 0 4.992-.644 6.334-1.583V37.74h-6.523v3.034z" fill="#666"/>
</svg>
