<svg width="116" height="77" viewBox="0 0 116 77" fill="none" xmlns="http://www.w3.org/2000/svg">
    <path d="M69.082 27.92C66.44 25.29 62.642 24.995 58 24.995c-4.648 0-8.452.297-11.092 2.936C44.268 30.568 44 34.366 44 39.008c0 4.643.268 8.442 2.909 11.08 2.64 2.64 6.444 2.907 11.091 2.907 4.647 0 8.45-.267 11.09-2.906 2.641-2.64 2.91-6.438 2.91-11.08 0-4.649-.272-8.45-2.918-11.089z" fill="#666"/>
    <path d="M66.125 33.668c.096 0 .176.078.176.173v10.357c0 .094-.08.172-.176.172h-2.27a.175.175 0 0 1-.176-.172V33.84c0-.096.079-.173.176-.173h2.27zm-9.848 0c1.712 0 3.501.078 4.384.962.868.87.962 2.6.966 4.281v5.287c0 .094-.08.172-.176.172h-2.27a.175.175 0 0 1-.176-.172V38.82c-.002-.939-.056-1.904-.54-2.39-.417-.417-1.195-.513-2.003-.533h-4.113a.174.174 0 0 0-.176.172v8.129c0 .094-.08.172-.177.172h-2.27a.174.174 0 0 1-.175-.172V33.84c0-.096.078-.173.175-.173h6.55zm.508 4.125c.096 0 .175.077.175.172v6.233a.174.174 0 0 1-.175.172H54.4a.174.174 0 0 1-.177-.172v-6.233c0-.095.079-.172.177-.172h2.383z" fill="#BBB"/>
</svg>
