<svg width="116" height="77" viewBox="0 0 116 77" fill="none" xmlns="http://www.w3.org/2000/svg">
    <path fill-rule="evenodd" clip-rule="evenodd" d="M29.319 34.544c0-2.379-1.914-4.295-4.254-4.295h-2.11v8.552h2.11a4.269 4.269 0 0 0 4.254-4.257zm9.597 17.048H31.17l-6.148-8.532h-2.068v8.514H16.13V25.995h9.777c5.637 0 10.238 3.833 10.238 8.55 0 2.875-1.764 5.444-4.448 7.016l7.219 10.031zm7.702-15.513c-1.802 0-3.336 2.45-3.336 5.483 0 3.032 1.534 5.486 3.336 5.486 1.844 0 3.375-2.454 3.375-5.486 0-3.033-1.53-5.483-3.375-5.483zm10.505 5.483c0 5.794-4.711 10.433-10.505 10.433-5.792 0-10.469-4.64-10.469-10.433 0-5.79 4.677-10.431 10.469-10.431 5.794 0 10.505 4.641 10.505 10.43zm8.148-2.147 7.862-7.86h13.97V42.52c0 3.184.77 4.179 2.45 4.179 1.654 0 2.725-.843 3.493-2.185V31.554h6.824v20.02h-1.457l-3.068-2.647c-1.266 1.457-3.872 3.067-6.712 3.067-5.98 0-8.356-3.644-8.356-7.594V32.505l-8.64 8.636 10.431 10.432H73.48l-8.208-8.13v8.13h-6.824V31.53h6.824v7.886z" fill="#666"/>
</svg>
