<svg width="33" height="33" viewBox="0 0 33 33" fill="none" xmlns="http://www.w3.org/2000/svg">
    <g clip-path="url(#unzsrxos3a)">
        <path d="M30.05 8.536c-1.018.45-2.098.746-3.203.877A5.595 5.595 0 0 0 29.3 6.328a11.144 11.144 0 0 1-3.541 1.353 5.576 5.576 0 0 0-9.502 5.086A15.832 15.832 0 0 1 4.764 6.94a5.557 5.557 0 0 0-.755 2.804c0 1.933.984 3.641 2.48 4.641a5.559 5.559 0 0 1-2.525-.697v.07a5.58 5.58 0 0 0 4.473 5.467 5.614 5.614 0 0 1-2.52.096 5.58 5.58 0 0 0 5.21 3.874 11.192 11.192 0 0 1-8.255 2.31 15.773 15.773 0 0 0 8.547 2.506c10.257 0 15.866-8.498 15.866-15.867 0-.24-.006-.483-.017-.72a11.33 11.33 0 0 0 2.783-2.887l-.002-.001z" fill="#fff"/>
    </g>
    <defs>
        <clipPath id="unzsrxos3a">
            <path fill="#fff" transform="translate(.5 .995)" d="M0 0h32v32H0z"/>
        </clipPath>
    </defs>
</svg>
