<svg width="33" height="33" viewBox="0 0 33 33" fill="none" xmlns="http://www.w3.org/2000/svg">
    <g clip-path="url(#kh630rzuia)">
        <path d="M29.224 9.659c.61 2.376.61 7.336.61 7.336s0 4.96-.61 7.336c-.338 1.313-1.329 2.346-2.584 2.696-2.278.634-10.14.634-10.14.634s-7.857 0-10.14-.634c-1.26-.355-2.249-1.387-2.584-2.696-.609-2.376-.609-7.336-.609-7.336s0-4.96.61-7.336c.338-1.314 1.329-2.347 2.583-2.696 2.283-.635 10.14-.635 10.14-.635s7.862 0 10.14.635c1.26.354 2.25 1.386 2.584 2.696zM13.834 21.66l8-4.666-8-4.667v9.334z" fill="#fff"/>
    </g>
    <defs>
        <clipPath id="kh630rzuia">
            <path fill="#fff" transform="translate(.5 .995)" d="M0 0h32v32H0z"/>
        </clipPath>
    </defs>
</svg>
